<?xml version="1.0" encoding="UTF-8" standalone="no"?>
<svg width="2000px" height="2000px" viewBox="0 0 2000 2000" version="1.1" xmlns="http://www.w3.org/2000/svg" xmlns:xlink="http://www.w3.org/1999/xlink">
    <!-- Generator: Sketch 42 (36781) - http://www.bohemiancoding.com/sketch -->
    <title>carrots-correct</title>
    <desc>Created with Sketch.</desc>
    <defs></defs>
    <g id="Page-1" stroke="none" stroke-width="1" fill="none" fill-rule="evenodd">
        <g id="carrots-correct">
            <g id="Group" transform="translate(100.000000, 0.000000)">
                <ellipse id="Oval" fill-opacity="0.15" fill="#000000" cx="450.889686" cy="1056.60539" rx="450.889686" ry="238.672455"></ellipse>
                <g id="carrot" transform="translate(20.000000, 654.000000)">
                    <g id="Group-3" transform="translate(0.958865, 0.179953)">
                        <path d="M363.143497,480.057173 C502.654521,480.057173 726.286993,468.495123 726.286993,379.795885 C726.286993,300.240407 726.286993,248.843388 726.286993,222.380486 C726.286993,135.442361 563.702112,0 363.143497,0 C162.584881,0 2.28046171e-12,135.442361 2.28046171e-12,222.380486 C2.28046171e-12,248.818695 1.47675058e-12,309.628431 1.68200584e-12,379.795885 C1.87799379e-12,448.321436 223.575508,480.057173 363.143497,480.057173 Z" id="Oval-3" fill="#DB931D"></path>
                        <path d="M363.143497,363.790107 C563.702112,363.790107 659.332568,309.31861 659.332568,222.380486 C659.332568,135.442361 563.702112,0 363.143497,0 C162.584881,0 0,135.442361 0,222.380486 C0,309.31861 162.584881,363.790107 363.143497,363.790107 Z" id="Oval-3" fill="#F5A623"></path>
                    </g>
                </g>
                <g id="carrot" transform="translate(20.000000, 0.000000)">
                    <g id="Group-3" transform="translate(0.958865, 564.179953)">
                        <path d="M363.143497,480.057173 C502.654521,480.057173 726.286993,468.495123 726.286993,379.795885 C726.286993,300.240407 726.286993,248.843388 726.286993,222.380486 C726.286993,135.442361 563.702112,0 363.143497,0 C162.584881,0 2.28046171e-12,135.442361 2.28046171e-12,222.380486 C2.28046171e-12,248.818695 1.47675058e-12,309.628431 1.68200584e-12,379.795885 C1.87799379e-12,448.321436 223.575508,480.057173 363.143497,480.057173 Z" id="Oval-3" fill="#DB931D"></path>
                        <path d="M363.143497,363.790107 C563.702112,363.790107 659.332568,309.31861 659.332568,222.380486 C659.332568,135.442361 563.702112,0 363.143497,0 C162.584881,0 0,135.442361 0,222.380486 C0,309.31861 162.584881,363.790107 363.143497,363.790107 Z" id="Oval-3" fill="#F5A623"></path>
                    </g>
                    <path d="M396.933198,518.339186 L396.933198,603.759589 C396.933198,608.175735 396.123455,615.20593 393.502293,618.733004 C393.502293,618.733004 399.011235,629.219099 346.383283,629.219099 C293.75533,629.219099 299.675884,618.783263 299.675884,618.783263 C297.886077,614.902064 296.435153,608.170172 296.435153,603.759589 L296.435153,493.798884 C212.625691,451.300938 109.17842,357.666788 61.7956408,292.449987 C-10.0483021,193.565283 -14.9951756,74.6829252 50.7464896,26.9188096 C116.488155,-20.8453061 228.023328,20.596119 299.867271,119.480823 C316.605705,142.519302 334.554831,173.30764 351.410514,207.588161 C363.577264,177.871367 376.5734,151.114795 389.177647,130.137804 C452.129832,25.3677738 559.628722,-25.6368849 629.283137,16.2157102 C698.937553,58.0683053 704.370784,176.929428 641.418598,281.699458 C594.856187,359.192325 481.162995,478.436348 396.933198,518.339186 Z" id="Combined-Shape" fill="#7AC02D"></path>
                    <path d="M629.058958,14.6409297 C559.404543,-27.2116654 451.905653,23.7929934 388.953468,128.563024 C326.001283,233.333054 253.273361,482.276179 322.927776,524.128774 C392.582191,565.98137 524.76855,372.108725 587.720735,267.338695 C650.67292,162.568665 698.713373,56.4935249 629.058958,14.6409297 Z" id="Oval-4" fill="#86D035"></path>
                </g>
            </g>
            <g id="Group" transform="translate(1002.000000, 612.000000)">
                <ellipse id="Oval" fill-opacity="0.15" fill="#000000" cx="450.889686" cy="1056.60539" rx="450.889686" ry="238.672455"></ellipse>
                <g id="carrot" transform="translate(20.000000, 654.000000)">
                    <g id="Group-3" transform="translate(0.958865, 0.179953)">
                        <path d="M363.143497,480.057173 C502.654521,480.057173 726.286993,468.495123 726.286993,379.795885 C726.286993,300.240407 726.286993,248.843388 726.286993,222.380486 C726.286993,135.442361 563.702112,0 363.143497,0 C162.584881,0 2.28046171e-12,135.442361 2.28046171e-12,222.380486 C2.28046171e-12,248.818695 1.47675058e-12,309.628431 1.68200584e-12,379.795885 C1.87799379e-12,448.321436 223.575508,480.057173 363.143497,480.057173 Z" id="Oval-3" fill="#DB931D"></path>
                        <path d="M363.143497,363.790107 C563.702112,363.790107 659.332568,309.31861 659.332568,222.380486 C659.332568,135.442361 563.702112,0 363.143497,0 C162.584881,0 0,135.442361 0,222.380486 C0,309.31861 162.584881,363.790107 363.143497,363.790107 Z" id="Oval-3" fill="#F5A623"></path>
                    </g>
                </g>
                <g id="carrot" transform="translate(20.000000, 0.000000)">
                    <g id="Group-3" transform="translate(0.958865, 564.179953)">
                        <path d="M363.143497,480.057173 C502.654521,480.057173 726.286993,468.495123 726.286993,379.795885 C726.286993,300.240407 726.286993,248.843388 726.286993,222.380486 C726.286993,135.442361 563.702112,0 363.143497,0 C162.584881,0 2.28046171e-12,135.442361 2.28046171e-12,222.380486 C2.28046171e-12,248.818695 1.47675058e-12,309.628431 1.68200584e-12,379.795885 C1.87799379e-12,448.321436 223.575508,480.057173 363.143497,480.057173 Z" id="Oval-3" fill="#DB931D"></path>
                        <path d="M363.143497,363.790107 C563.702112,363.790107 659.332568,309.31861 659.332568,222.380486 C659.332568,135.442361 563.702112,0 363.143497,0 C162.584881,0 0,135.442361 0,222.380486 C0,309.31861 162.584881,363.790107 363.143497,363.790107 Z" id="Oval-3" fill="#F5A623"></path>
                    </g>
                    <path d="M396.933198,518.339186 L396.933198,603.759589 C396.933198,608.175735 396.123455,615.20593 393.502293,618.733004 C393.502293,618.733004 399.011235,629.219099 346.383283,629.219099 C293.75533,629.219099 299.675884,618.783263 299.675884,618.783263 C297.886077,614.902064 296.435153,608.170172 296.435153,603.759589 L296.435153,493.798884 C212.625691,451.300938 109.17842,357.666788 61.7956408,292.449987 C-10.0483021,193.565283 -14.9951756,74.6829252 50.7464896,26.9188096 C116.488155,-20.8453061 228.023328,20.596119 299.867271,119.480823 C316.605705,142.519302 334.554831,173.30764 351.410514,207.588161 C363.577264,177.871367 376.5734,151.114795 389.177647,130.137804 C452.129832,25.3677738 559.628722,-25.6368849 629.283137,16.2157102 C698.937553,58.0683053 704.370784,176.929428 641.418598,281.699458 C594.856187,359.192325 481.162995,478.436348 396.933198,518.339186 Z" id="Combined-Shape" fill="#7AC02D"></path>
                    <path d="M629.058958,14.6409297 C559.404543,-27.2116654 451.905653,23.7929934 388.953468,128.563024 C326.001283,233.333054 253.273361,482.276179 322.927776,524.128774 C392.582191,565.98137 524.76855,372.108725 587.720735,267.338695 C650.67292,162.568665 698.713373,56.4935249 629.058958,14.6409297 Z" id="Oval-4" fill="#86D035"></path>
                </g>
            </g>
        </g>
    </g>
</svg>