<?xml version="1.0" encoding="UTF-8" standalone="no"?>
<svg width="2000px" height="2000px" viewBox="0 0 2000 2000" version="1.1" xmlns="http://www.w3.org/2000/svg" xmlns:xlink="http://www.w3.org/1999/xlink">
    <!-- Generator: Sketch 42 (36781) - http://www.bohemiancoding.com/sketch -->
    <title>carrots</title>
    <desc>Created with Sketch.</desc>
    <defs></defs>
    <g id="Page-1" stroke="none" stroke-width="1" fill="none" fill-rule="evenodd">
        <g id="carrots">
            <g id="carrot" transform="translate(100.000000, 100.000000)">
                <ellipse id="Oval" fill-opacity="0.15" fill="#000000" cx="450.889686" cy="966.605389" rx="450.889686" ry="238.672455"></ellipse>
                <g id="Group-3" transform="translate(20.958865, 564.179953)">
                    <path d="M363.143497,480.057173 C502.654521,480.057173 726.286993,468.495123 726.286993,379.795885 C726.286993,300.240407 726.286993,248.843388 726.286993,222.380486 C726.286993,135.442361 563.702112,0 363.143497,0 C162.584881,0 2.28046171e-12,135.442361 2.28046171e-12,222.380486 C2.28046171e-12,248.818695 1.47675058e-12,309.628431 1.68200584e-12,379.795885 C1.87799379e-12,448.321436 223.575508,480.057173 363.143497,480.057173 Z" id="Oval-3" fill="#DB931D"></path>
                    <path d="M363.143497,363.790107 C563.702112,363.790107 659.332568,309.31861 659.332568,222.380486 C659.332568,135.442361 563.702112,0 363.143497,0 C162.584881,0 0,135.442361 0,222.380486 C0,309.31861 162.584881,363.790107 363.143497,363.790107 Z" id="Oval-3" fill="#F5A623"></path>
                </g>
                <path d="M416.933198,518.339186 L416.933198,603.759589 C416.933198,608.175735 416.123455,615.20593 413.502293,618.733004 C413.502293,618.733004 419.011235,629.219099 366.383283,629.219099 C313.75533,629.219099 319.675884,618.783263 319.675884,618.783263 C317.886077,614.902064 316.435153,608.170172 316.435153,603.759589 L316.435153,493.798884 C232.625691,451.300938 129.17842,357.666788 81.7956408,292.449987 C9.95169786,193.565283 5.00482438,74.6829252 70.7464896,26.9188096 C136.488155,-20.8453061 248.023328,20.596119 319.867271,119.480823 C336.605705,142.519302 354.554831,173.30764 371.410514,207.588161 C383.577264,177.871367 396.5734,151.114795 409.177647,130.137804 C472.129832,25.3677738 579.628722,-25.6368849 649.283137,16.2157102 C718.937553,58.0683053 724.370784,176.929428 661.418598,281.699458 C614.856187,359.192325 501.162995,478.436348 416.933198,518.339186 Z" id="Combined-Shape" fill="#7AC02D"></path>
                <path d="M649.058958,14.6409297 C579.404543,-27.2116654 471.905653,23.7929934 408.953468,128.563024 C346.001283,233.333054 273.273361,482.276179 342.927776,524.128774 C412.582191,565.98137 544.76855,372.108725 607.720735,267.338695 C670.67292,162.568665 718.713373,56.4935249 649.058958,14.6409297 Z" id="Oval-4" fill="#86D035"></path>
            </g>
            <g id="carrot" transform="translate(1002.000000, 703.000000)">
                <ellipse id="Oval" fill-opacity="0.15" fill="#000000" cx="450.889686" cy="966.605389" rx="450.889686" ry="238.672455"></ellipse>
                <g id="Group-3" transform="translate(20.958865, 564.179953)">
                    <path d="M363.143497,480.057173 C502.654521,480.057173 726.286993,468.495123 726.286993,379.795885 C726.286993,300.240407 726.286993,248.843388 726.286993,222.380486 C726.286993,135.442361 563.702112,0 363.143497,0 C162.584881,0 2.28046171e-12,135.442361 2.28046171e-12,222.380486 C2.28046171e-12,248.818695 1.47675058e-12,309.628431 1.68200584e-12,379.795885 C1.87799379e-12,448.321436 223.575508,480.057173 363.143497,480.057173 Z" id="Oval-3" fill="#DB931D"></path>
                    <path d="M363.143497,363.790107 C563.702112,363.790107 659.332568,309.31861 659.332568,222.380486 C659.332568,135.442361 563.702112,0 363.143497,0 C162.584881,0 0,135.442361 0,222.380486 C0,309.31861 162.584881,363.790107 363.143497,363.790107 Z" id="Oval-3" fill="#F5A623"></path>
                </g>
                <path d="M416.933198,518.339186 L416.933198,603.759589 C416.933198,608.175735 416.123455,615.20593 413.502293,618.733004 C413.502293,618.733004 419.011235,629.219099 366.383283,629.219099 C313.75533,629.219099 319.675884,618.783263 319.675884,618.783263 C317.886077,614.902064 316.435153,608.170172 316.435153,603.759589 L316.435153,493.798884 C232.625691,451.300938 129.17842,357.666788 81.7956408,292.449987 C9.95169786,193.565283 5.00482438,74.6829252 70.7464896,26.9188096 C136.488155,-20.8453061 248.023328,20.596119 319.867271,119.480823 C336.605705,142.519302 354.554831,173.30764 371.410514,207.588161 C383.577264,177.871367 396.5734,151.114795 409.177647,130.137804 C472.129832,25.3677738 579.628722,-25.6368849 649.283137,16.2157102 C718.937553,58.0683053 724.370784,176.929428 661.418598,281.699458 C614.856187,359.192325 501.162995,478.436348 416.933198,518.339186 Z" id="Combined-Shape" fill="#7AC02D"></path>
                <path d="M649.058958,14.6409297 C579.404543,-27.2116654 471.905653,23.7929934 408.953468,128.563024 C346.001283,233.333054 273.273361,482.276179 342.927776,524.128774 C412.582191,565.98137 544.76855,372.108725 607.720735,267.338695 C670.67292,162.568665 718.713373,56.4935249 649.058958,14.6409297 Z" id="Oval-4" fill="#86D035"></path>
            </g>
        </g>
    </g>
</svg>