<?xml version="1.0" encoding="UTF-8" standalone="no"?>
<svg width="2000px" height="2000px" viewBox="0 0 2000 2000" version="1.1" xmlns="http://www.w3.org/2000/svg" xmlns:xlink="http://www.w3.org/1999/xlink">
    <!-- Generator: Sketch 42 (36781) - http://www.bohemiancoding.com/sketch -->
    <title>weeds</title>
    <desc>Created with Sketch.</desc>
    <defs></defs>
    <g id="Page-1" stroke="none" stroke-width="1" fill="none" fill-rule="evenodd">
        <g id="weeds">
            <g id="Group-2" transform="translate(11.000000, 55.000000)">
                <ellipse id="Oval" fill-opacity="0.15" fill="#000000" cx="468.5" cy="1069.96647" rx="468.5" ry="204.033533"></ellipse>
                <g id="Group-3" transform="translate(46.000000, 0.000000)" fill="#FEC606">
                    <path d="M169.13193,474 C144.13193,494 66.1319303,553 51.1319303,541 C36.1319303,529 41.1319303,408 55.1319303,408 C69.1319303,408 194.13193,454 169.13193,474 Z" id="Path-4"></path>
                    <path d="M1062.13193,258 C1037.13193,278 959.13193,337 944.13193,325 C929.13193,313 934.13193,192 948.13193,192 C962.13193,192 1087.13193,238 1062.13193,258 Z" id="Path-4"></path>
                    <path d="M734.13193,113 C709.13193,133 631.13193,192 616.13193,180 C601.13193,168 606.13193,47 620.13193,47 C634.13193,47 759.13193,93 734.13193,113 Z" id="Path-4"></path>
                    <path d="M506.13193,93 C481.13193,113 403.13193,172 388.13193,160 C373.13193,148 378.13193,27 392.13193,27 C406.13193,27 531.13193,73 506.13193,93 Z" id="Path-4" transform="translate(444.213638, 94.297521) rotate(75.000000) translate(-444.213638, -94.297521) "></path>
                    <path d="M127.13193,66 C102.13193,86 24.1319303,145 9.1319303,133 C-5.8680697,121 -0.868069695,1.87739868e-15 13.1319303,0 C27.1319303,0 152.13193,46 127.13193,66 Z" id="Path-4"></path>
                    <path d="M828.13193,651 C803.13193,671 725.13193,730 710.13193,718 C695.13193,706 700.13193,585 714.13193,585 C728.13193,585 853.13193,631 828.13193,651 Z" id="Path-4" transform="translate(766.213638, 652.297521) rotate(-31.000000) translate(-766.213638, -652.297521) "></path>
                </g>
                <g id="Group" transform="translate(52.000000, 47.000000)">
                    <path d="M388.102362,1064.23713 C527.613387,1064.23713 751.245858,1052.67508 751.245858,963.975838 C751.245858,884.420359 621.736275,878.390112 598,855 C436.102362,695.463434 461,542 415,483 C369,424 350.440367,806.639908 157,855 C-39,904 4,963.975838 4,963.975838 C25.9503778,1028.80512 248.534374,1064.23713 388.102362,1064.23713 Z" id="Oval-3" fill="#7AC02D"></path>
                    <path d="M319,791 C319,791 416.496141,359.094287 468.165426,246.00288 C504.246465,167.030326 683.212861,69.6129946 793.165426,90.0028802 C901,110 928.165426,200.098311 928.165426,286.00288 C928.165426,395 872,512 793.165426,537 C656.868052,580.222589 596.165426,521.00576 596.165426,450.00288 C596.165426,379 686.68378,340 686.68378,340" id="Line" stroke="#86D035" stroke-width="100" stroke-linecap="round"></path>
                    <path d="M154.692939,812 C154.692939,812 -24.9763457,254.094287 26.6929393,141.00288 C62.7739778,62.0303262 184.008187,-17.6997531 294.693773,4 C396.694608,23.9971198 444.693773,95.3639666 444.693773,181.00288 C444.693773,217 457.694608,318.99712 366.693773,364 C270.546362,411.54803 213.693773,406.190878 183.693773,325 C153.693773,243.809122 247.110643,181.00288 247.110643,181.00288" id="Line" stroke="#86D035" stroke-width="100" stroke-linecap="round" transform="translate(231.346887, 406.190878) scale(-1, 1) translate(-231.346887, -406.190878) "></path>
                    <path d="M417,601 C417,707 501,885 440,885 C379,885 293,860 293,860 C293,860 417,523.431625 417,601 Z" id="Path-2" fill="#86D035"></path>
                </g>
            </g>
            <g id="Group-2" transform="translate(885.000000, 670.000000)">
                <g id="Group-3" transform="translate(46.000000, 0.000000)" fill="#FEC606">
                    <path d="M169.13193,474 C144.13193,494 66.1319303,553 51.1319303,541 C36.1319303,529 41.1319303,408 55.1319303,408 C69.1319303,408 194.13193,454 169.13193,474 Z" id="Path-4"></path>
                    <path d="M1062.13193,258 C1037.13193,278 959.13193,337 944.13193,325 C929.13193,313 934.13193,192 948.13193,192 C962.13193,192 1087.13193,238 1062.13193,258 Z" id="Path-4"></path>
                    <path d="M734.13193,113 C709.13193,133 631.13193,192 616.13193,180 C601.13193,168 606.13193,47 620.13193,47 C634.13193,47 759.13193,93 734.13193,113 Z" id="Path-4"></path>
                    <path d="M506.13193,93 C481.13193,113 403.13193,172 388.13193,160 C373.13193,148 378.13193,27 392.13193,27 C406.13193,27 531.13193,73 506.13193,93 Z" id="Path-4" transform="translate(444.213638, 94.297521) rotate(75.000000) translate(-444.213638, -94.297521) "></path>
                    <path d="M127.13193,66 C102.13193,86 24.1319303,145 9.1319303,133 C-5.8680697,121 -0.868069695,1.87739868e-15 13.1319303,0 C27.1319303,0 152.13193,46 127.13193,66 Z" id="Path-4"></path>
                    <path d="M828.13193,651 C803.13193,671 725.13193,730 710.13193,718 C695.13193,706 700.13193,585 714.13193,585 C728.13193,585 853.13193,631 828.13193,651 Z" id="Path-4" transform="translate(766.213638, 652.297521) rotate(-31.000000) translate(-766.213638, -652.297521) "></path>
                </g>
                <ellipse id="Oval" fill-opacity="0.15" fill="#000000" cx="468.5" cy="1069.96647" rx="468.5" ry="204.033533"></ellipse>
                <g id="Group" transform="translate(52.000000, 47.000000)">
                    <path d="M388.102362,1064.23713 C527.613387,1064.23713 751.245858,1052.67508 751.245858,963.975838 C751.245858,884.420359 621.736275,878.390112 598,855 C436.102362,695.463434 461,542 415,483 C369,424 350.440367,806.639908 157,855 C-39,904 4,963.975838 4,963.975838 C25.9503778,1028.80512 248.534374,1064.23713 388.102362,1064.23713 Z" id="Oval-3" fill="#7AC02D"></path>
                    <path d="M319,791 C319,791 416.496141,359.094287 468.165426,246.00288 C504.246465,167.030326 683.212861,69.6129946 793.165426,90.0028802 C901,110 928.165426,200.098311 928.165426,286.00288 C928.165426,395 872,512 793.165426,537 C656.868052,580.222589 596.165426,521.00576 596.165426,450.00288 C596.165426,379 686.68378,340 686.68378,340" id="Line" stroke="#86D035" stroke-width="100" stroke-linecap="round"></path>
                    <path d="M154.692939,812 C154.692939,812 -24.9763457,254.094287 26.6929393,141.00288 C62.7739778,62.0303262 184.008187,-17.6997531 294.693773,4 C396.694608,23.9971198 444.693773,95.3639666 444.693773,181.00288 C444.693773,217 457.694608,318.99712 366.693773,364 C270.546362,411.54803 213.693773,406.190878 183.693773,325 C153.693773,243.809122 247.110643,181.00288 247.110643,181.00288" id="Line" stroke="#86D035" stroke-width="100" stroke-linecap="round" transform="translate(231.346887, 406.190878) scale(-1, 1) translate(-231.346887, -406.190878) "></path>
                    <path d="M417,601 C417,707 501,885 440,885 C379,885 293,860 293,860 C293,860 417,523.431625 417,601 Z" id="Path-2" fill="#86D035"></path>
                </g>
            </g>
        </g>
    </g>
</svg>